<svg width="22" height="22" viewBox="0 0 22 22" fill="none" xmlns="http://www.w3.org/2000/svg">
<g clip-path="url(#clip0_6_266)">
<path d="M21.3527 18.7825C21.3527 20.2272 19.0085 21.3984 16.1168 21.3984C13.2251 21.3984 10.8809 20.2272 10.8809 18.7825" stroke="black" stroke-linecap="round" stroke-linejoin="round"/>
<path d="M21.3401 6.60001C21.3401 8.04171 19.0008 9.21043 16.1151 9.21043C13.2294 9.21043 10.8901 8.04171 10.8901 6.60001" stroke="black" stroke-linecap="round" stroke-linejoin="round"/>
<path d="M10.8901 9.89999H10.9089C11.135 11.2375 13.3796 12.2878 16.1151 12.2878C18.8507 12.2878 21.0953 11.2375 21.3214 9.89999H21.3401" stroke="black" stroke-linecap="round" stroke-linejoin="round"/>
<path d="M10.8901 12.76H10.9089C11.135 14.0975 13.3796 15.1478 16.1151 15.1478C18.8507 15.1478 21.0953 14.0975 21.3214 12.76H21.3401" stroke="black" stroke-linecap="round" stroke-linejoin="round"/>
<path d="M10.8901 15.84H10.9089C11.135 17.1775 13.3796 18.2278 16.1151 18.2278C18.8507 18.2278 21.0953 17.1775 21.3214 15.84H21.3401" stroke="black" stroke-linecap="round" stroke-linejoin="round"/>
<path d="M16.1151 6.0313C19.0008 6.0313 21.3401 4.82889 21.3401 3.34565C21.3401 1.86241 19.0008 0.660004 16.1151 0.660004C13.2294 0.660004 10.8901 1.86241 10.8901 3.34565C10.8901 4.82889 13.2294 6.0313 16.1151 6.0313Z" stroke="black" stroke-linecap="round" stroke-linejoin="round"/>
<path d="M21.3525 3.66293V18.7568" stroke="black" stroke-linecap="round" stroke-linejoin="round"/>
<path d="M0.439941 12.76H0.458717C0.685298 14.1003 2.93457 15.1528 5.67588 15.1528C8.4172 15.1528 10.6665 14.1003 10.8931 12.76H10.9118" stroke="black" stroke-linecap="round" stroke-linejoin="round"/>
<path d="M0.439941 15.84H0.458717C0.685298 17.1803 2.93457 18.2328 5.67588 18.2328C8.4172 18.2328 10.6665 17.1803 10.8931 15.84H10.9118" stroke="black" stroke-linecap="round" stroke-linejoin="round"/>
<path d="M10.8972 18.7825C10.8972 20.2272 8.55297 21.3984 5.66124 21.3984C2.7695 21.3984 0.425293 20.2272 0.425293 18.7825" stroke="black" stroke-linecap="round" stroke-linejoin="round"/>
<path d="M5.6764 12.2031C8.56842 12.2031 10.9129 10.998 10.9129 9.51154C10.9129 8.02505 8.56842 6.82001 5.6764 6.82001C2.78438 6.82001 0.439941 8.02505 0.439941 9.51154C0.439941 10.998 2.78438 12.2031 5.6764 12.2031Z" stroke="black" stroke-linecap="round" stroke-linejoin="round"/>
<path d="M0.425293 9.7005V18.7568" stroke="black" stroke-linecap="round" stroke-linejoin="round"/>
<path d="M10.897 3.66293V18.7568" stroke="black" stroke-linecap="round" stroke-linejoin="round"/>
</g>
<defs>
<clipPath id="clip0_6_266">
<rect width="22" height="22" fill="white"/>
</clipPath>
</defs>
</svg>
